<svg id="Laag_1" data-name="Laag 1" xmlns="http://www.w3.org/2000/svg" viewBox="0 0 1080 1080"><defs><style>.cls-1{fill:#019bd8;}</style></defs><title>Tekengebied 6</title><path class="cls-1" d="M955.9,777.83V944.48a.75.75,0,0,1-.75.74H125.23a.74.74,0,0,1-.75-.74V777.83a.74.74,0,0,0-.75-.75H5.94a.74.74,0,0,0-.75.75V1074.4a.74.74,0,0,0,.75.75h1068.5a.75.75,0,0,0,.75-.75V777.83a.75.75,0,0,0-.75-.75H956.64A.74.74,0,0,0,955.9,777.83Z"/><rect class="cls-1" x="488.62" y="5" width="104.76" height="735" rx="52.38"/><rect class="cls-1" x="608.36" y="436.55" width="116.67" height="472.51" rx="58.34" transform="translate(662.37 1619.98) rotate(-135)"/><rect class="cls-1" x="356.36" y="436.55" width="116.67" height="472.51" rx="58.34" transform="translate(-354.28 490.29) rotate(-45)"/></svg>