<svg id="Laag_1" data-name="Laag 1" xmlns="http://www.w3.org/2000/svg" viewBox="0 0 1080 1080"><defs><style>.cls-1{fill:#fff;}</style></defs><title>Tekengebied 7</title><path class="cls-1" d="M1046.42,951.06,764,668.59a416.67,416.67,0,0,0,79.2-245.06C843.15,192.38,655.77,5,424.62,5S6.08,192.38,6.08,423.53,193.47,842.07,424.62,842.07a416.57,416.57,0,0,0,235.09-72.22l284,284a72.88,72.88,0,0,0,102.75,0h0A72.86,72.86,0,0,0,1046.42,951.06ZM424.62,691.83c-148.17,0-268.29-120.12-268.29-268.3S276.45,155.24,424.62,155.24,692.91,275.36,692.91,423.53,572.79,691.83,424.62,691.83Z"/></svg>