<svg id="Laag_1" data-name="Laag 1" xmlns="http://www.w3.org/2000/svg" viewBox="0 0 1080 1080"><defs><style>.cls-1{fill:#53bce7;}.cls-2{fill:none;stroke:#019bd8;stroke-width:89.02px;}.cls-2,.cls-3{stroke-miterlimit:10;}.cls-3{fill:red;stroke:#009ad7;stroke-width:30px;}.cls-4{font-size:613.33px;fill:#009ad7;font-family:SourceSansPro-Regular, Source Sans Pro;}</style></defs><title>Tekengebied 12</title><path class="cls-1" d="M530.18,1018l458.2-519.53c29.54-46.85,47-104.15,47-166.15,0-158.18-113.09-286.4-252.6-286.4s-252.6,128.22-252.6,286.4c0,9.36.43,18.6,1.2,27.72H529c.77-9.12,1.2-18.36,1.2-27.72,0-158.18-113.09-286.4-252.6-286.4S25,174.1,25,332.28c0,61.83,17.33,119,46.71,165.83Z"/><path class="cls-2" d="M529.46,1007.15,960.27,499.43c27.77-45.79,44.19-101.79,44.19-162.38,0-154.58-106.33-279.9-237.5-279.9s-237.5,125.32-237.5,279.9c0,9.14.4,18.17,1.13,27.09h-2.26c.73-8.92,1.13-17.95,1.13-27.09,0-154.58-106.33-279.9-237.5-279.9S54.46,182.47,54.46,337.05c0,60.42,16.29,116.32,43.92,162.06Z"/><circle class="cls-3" cx="728.4" cy="345.24" r="326.05"/><text class="cls-4" transform="translate(570.2 533.34)">1</text></svg>