<svg id="Laag_1" data-name="Laag 1" xmlns="http://www.w3.org/2000/svg" viewBox="0 0 1080 1080"><defs><style>.cls-1{fill:#53bce7;}.cls-1,.cls-2{fill-rule:evenodd;}.cls-2{fill:none;stroke:#019bd8;stroke-miterlimit:10;stroke-width:89.02px;}</style></defs><title>Tekengebied 16</title><path class="cls-1" d="M634.23,425.17,540,128.86,445.67,425.17A22.06,22.06,0,0,1,424.8,441H123.6L368.66,628.74a23.59,23.59,0,0,1,7.92,25.63L282.3,960.86,527,773.5a21.12,21.12,0,0,1,25.91,0l244.7,187.36L703.33,654.37a23.59,23.59,0,0,1,7.91-25.63L956.3,441H655.11A22.07,22.07,0,0,1,634.23,425.17Z"/><path class="cls-2" d="M538.94,65a20.77,20.77,0,0,0-18.6,14.87L416.87,405.09H85.5c-11.38,0-20.58,9.74-20.55,21.66a21.92,21.92,0,0,0,8.38,17.3L342.48,650.22,239,986.74c-3.51,11.34,2.41,23.52,13.24,27.2a19.82,19.82,0,0,0,18.55-3.12L540,804.66l269.16,206.16a20,20,0,0,0,28.81-4.65,22.44,22.44,0,0,0,3-19.43L737.42,650.22l269.16-206.17a22.26,22.26,0,0,0,4.34-30.19,20.29,20.29,0,0,0-16.51-8.77H663L559.56,79.9A20.66,20.66,0,0,0,538.94,65Z"/></svg>